<?xml version="1.0" standalone="no"?>
<!DOCTYPE svg PUBLIC "-//W3C//DTD SVG 20010904//EN"
 "http://www.w3.org/TR/2001/REC-SVG-20010904/DTD/svg10.dtd">
<svg version="1.0" xmlns="http://www.w3.org/2000/svg"
 width="3840.000000pt" height="2160.000000pt" viewBox="0 0 3840.000000 2160.000000"
 preserveAspectRatio="xMidYMid meet">

<g transform="translate(0.000000,2160.000000) scale(0.100000,-0.100000)"
fill="#000000" stroke="none">
<path d="M4345 16609 c-1378 -107 -2383 -893 -2681 -2094 -70 -286 -77 -355
-81 -897 l-5 -488 -729 0 -729 0 0 -1080 0 -1080 730 0 730 0 0 -2890 0 -2890
1263 2 1262 3 3 2888 2 2887 1220 0 1220 0 0 -2890 0 -2890 1265 0 1265 0 0
3970 0 3970 -2485 0 -2485 0 0 289 c0 207 4 310 14 363 67 348 335 597 715
663 69 12 227 15 897 15 l814 0 0 1080 0 1080 -1047 -1 c-577 -1 -1097 -6
-1158 -10z"/>
<path d="M20115 13250 c-1353 -78 -2402 -703 -3041 -1812 -298 -516 -481
-1107 -556 -1793 -20 -183 -17 -723 5 -905 41 -339 105 -628 206 -930 309
-925 896 -1674 1680 -2142 614 -368 1352 -558 2161 -558 1472 0 2704 630 3365
1720 95 156 245 464 232 476 -5 6 -2182 628 -2237 640 -24 5 -29 -1 -77 -98
-144 -288 -376 -478 -719 -588 -278 -89 -666 -104 -989 -39 -616 124 -1011
549 -1140 1224 -8 44 -15 88 -15 98 0 16 133 17 2654 17 1723 0 2657 3 2661
10 16 25 34 250 40 490 19 764 -92 1400 -351 2008 -252 589 -650 1100 -1139
1463 -705 523 -1683 779 -2740 719z m510 -1900 c334 -39 601 -159 821 -372
229 -221 367 -510 408 -855 l7 -53 -1437 0 -1436 0 7 43 c14 87 75 308 109
397 181 468 458 714 913 809 181 39 430 51 608 31z"/>
<path d="M9210 13127 c0 -5 2808 -7875 2821 -7909 l11 -28 1109 0 c873 0 1110
3 1116 12 19 29 2829 7874 2823 7881 -3 4 -582 6 -1285 5 l-1279 -3 -685
-2302 c-377 -1266 -686 -2301 -688 -2299 -2 1 -311 1046 -686 2322 l-684 2319
-1287 3 c-707 1 -1286 1 -1286 -1z"/>
<path d="M24902 9163 l3 -3968 1285 0 1285 0 5 2175 6 2175 22 138 c71 435
199 722 422 948 160 163 320 250 570 312 81 19 117 21 733 24 l647 4 0 -2890
0 -2891 1285 0 1284 0 4 2158 c3 2369 0 2228 63 2512 143 638 499 1015 1036
1094 88 13 225 16 832 16 l726 0 0 53 c0 28 9 477 20 997 11 520 20 983 20
1028 l0 84 -572 -5 c-463 -4 -595 -8 -688 -21 -416 -60 -695 -191 -951 -445
-170 -169 -284 -332 -421 -599 l-68 -134 0 602 0 601 -1707 -4 c-1853 -3
-1771 -1 -2027 -58 -419 -93 -747 -326 -1003 -714 -69 -104 -160 -265 -202
-357 l-30 -63 0 598 -1 597 -1290 0 -1290 0 2 -3967z"/>
</g>
</svg>
